<?xml version="1.0" encoding="iso-8859-1"?>
<!-- Uploaded to: SVG Repo, www.svgrepo.com, Generator: SVG Repo Mixer Tools -->
<svg fill="#797979" height="800px" width="800px" version="1.1" id="Layer_1" xmlns="http://www.w3.org/2000/svg" xmlns:xlink="http://www.w3.org/1999/xlink" 
	 viewBox="0 0 492.308 492.308" xml:space="preserve">
<g>
	<g>
		<path d="M442.962,390.567V0h-86.644H218.471H108.423C75.846,0,49.346,26.5,49.346,59.077v372.519
			c0,33.481,27.231,60.712,60.712,60.712h332.904v-19.692h-22.981v-82.048H442.962z M238.163,19.692h98.462v141.288l-49.231-31.173
			l-49.231,31.173V19.692z M69.038,59.077c0-18.902,13.386-34.705,31.173-38.495v351.15c-11.898,1.952-22.662,7.32-31.173,15.134
			V59.077z M400.288,472.615H110.058c-22.615,0-41.019-18.404-41.019-41.019c0-22.625,18.404-41.029,41.019-41.029h290.231V472.615z
			 M119.904,370.875V19.692h98.567v177.077l68.923-43.654l68.923,43.654V19.692h66.952v351.183H119.904z"/>
	</g>
</g>
</svg>